# xmcd
#
# Track frame offsets:
#	150
#	17759
#	29003
#	43414
#	58413
#
# Disc length: 905 seconds
#
# Revision: 1
# Processed by: cddbd v1.5.2PL0 Copyright (c) Steve Scherf et al.
# Submitted via: audiograbber 1.83.01
#
DISCID=48038705
DTITLE=Kathlene Greenwood - Tribute to Linda Ronstadt
DYEAR=2010
DGENRE=Easy Listening
TTITLE0=Blue Bayou
TTITLE1=It's So Easy
TTITLE2=Just One Look
TTITLE3=Ooh Baby, Baby
TTITLE4=When Will I be Loved
EXTD=Recorded in Edmonton, Alberta, Canada Oct 2010 @ B Scene Studios
EXTT0=
EXTT1=
EXTT2=
EXTT3=
EXTT4=
PLAYORDER=
